<svg width="23" height="22" viewBox="0 0 23 22" fill="none" xmlns="http://www.w3.org/2000/svg">
<path d="M14 4.00943L18 8.00943M16 2.00943C16.2547 1.70846 16.5697 1.46348 16.925 1.29011C17.2803 1.11673 17.6681 1.01876 18.0636 1.00244C18.4592 0.986119 18.8538 1.05181 19.2224 1.19531C19.5909 1.33882 19.9254 1.557 20.2043 1.83595C20.4833 2.11489 20.7006 2.44849 20.8425 2.81547C20.9845 3.18245 21.0478 3.57476 21.0286 3.9674C21.0094 4.36005 20.908 4.74441 20.7309 5.09599C20.5538 5.44757 20.3049 5.75866 20 6.00943L6.5 19.5094L1 21.0094L2.5 15.5094L16 2.00943Z" stroke="#010101" stroke-width="2" stroke-linecap="round" stroke-linejoin="round"/>
</svg>
