<svg width="20" height="33" viewBox="0 0 45 58" fill="none" xmlns="http://www.w3.org/2000/svg">
<path d="M38.5714 0H6.42857C4.72361 0 3.08848 0.677294 1.88288 1.88289C0.677294 3.08848 0 4.72361 0 6.42857V51.4286C0 53.1335 0.677294 54.7687 1.88288 55.9743C3.08848 57.1799 4.72361 57.8571 6.42857 57.8571H38.5714C40.2764 57.8571 41.9115 57.1799 43.1171 55.9743C44.3227 54.7687 45 53.1335 45 51.4286V6.42857C45 4.72361 44.3227 3.08848 43.1171 1.88289C41.9115 0.677294 40.2764 0 38.5714 0ZM25.7143 48.2143H19.2857V41.7857H25.7143V48.2143ZM34.3929 23.7857C34.1291 24.5591 33.8067 25.3113 33.4286 26.0357C32.9892 26.7531 32.4478 27.4027 31.8214 27.9643L30.2143 29.5714C29.6527 30.1978 29.0031 30.7392 28.2857 31.1786C27.6429 31.8214 27.3214 32.4643 26.6786 33.1071C26.1661 33.88 25.8363 34.7593 25.7143 35.6786C25.4485 36.7282 25.3402 37.8114 25.3929 38.8929H19.6071C19.5585 37.5989 19.6664 36.3038 19.9286 35.0357C19.9925 34.0441 20.2094 33.0683 20.5714 32.1429C20.8754 31.3282 21.3097 30.5684 21.8571 29.8929L23.7857 27.9643C24.2403 27.4431 24.7846 27.0077 25.3929 26.6786C26.0357 26.3571 26.3571 25.7143 26.6786 25.3929L27.6429 23.4643C27.9065 22.7451 28.016 21.9785 27.9643 21.2143C27.9003 20.2226 27.6835 19.2468 27.3214 18.3214C26.5784 17.0452 25.4544 16.0336 24.1071 15.4286C23.6136 15.1687 23.0555 15.0571 22.5 15.1071C21.5705 15.034 20.6379 15.2028 19.7929 15.5971C18.948 15.9914 18.2196 16.5978 17.6786 17.3571C16.5779 18.9625 16.0151 20.8758 16.0714 22.8214H10.2857C10.2943 20.9584 10.6204 19.1105 11.25 17.3571C11.7893 15.7921 12.6673 14.3653 13.8214 13.1786C14.9205 12.07 16.2326 11.1953 17.6786 10.6071C19.432 9.97755 21.2799 9.65145 23.1429 9.64286C24.663 9.679 26.1734 9.89478 27.6429 10.2857C28.9934 10.7232 30.2102 11.4976 31.1786 12.5357C32.2138 13.5739 33.0813 14.7667 33.75 16.0714C34.3786 17.6016 34.706 19.2386 34.7143 20.8929C34.7541 21.8679 34.6458 22.8432 34.3929 23.7857Z" fill="black"/>
</svg>
