<svg width="45" height="24" viewBox="0 0 65 44" fill="none" xmlns="http://www.w3.org/2000/svg">
<path d="M3.61111 43.3333H61.3889C63.375 43.3333 65 41.7083 65 39.7222C65 37.7361 63.375 36.1111 61.3889 36.1111H3.61111C1.625 36.1111 0 37.7361 0 39.7222C0 41.7083 1.625 43.3333 3.61111 43.3333ZM3.61111 25.2778H61.3889C63.375 25.2778 65 23.6528 65 21.6667C65 19.6806 63.375 18.0556 61.3889 18.0556H3.61111C1.625 18.0556 0 19.6806 0 21.6667C0 23.6528 1.625 25.2778 3.61111 25.2778ZM0 3.61111C0 5.59722 1.625 7.22222 3.61111 7.22222H61.3889C63.375 7.22222 65 5.59722 65 3.61111C65 1.625 63.375 0 61.3889 0H3.61111C1.625 0 0 1.625 0 3.61111Z" fill="white"/>
</svg>
